<?xml version="1.0" standalone="no"?>
<!DOCTYPE svg PUBLIC "-//W3C//DTD SVG 20010904//EN"
 "http://www.w3.org/TR/2001/REC-SVG-20010904/DTD/svg10.dtd">
<svg version="1.0" xmlns="http://www.w3.org/2000/svg"
 width="923.000000pt" height="923.000000pt" viewBox="0 0 923.000000 923.000000"
 preserveAspectRatio="xMidYMid meet">
<metadata>
Created by potrace 1.11, written by Peter Selinger 2001-2013
</metadata>
<g transform="translate(0.000000,923.000000) scale(0.100000,-0.100000)"
fill="#000000" stroke="none">
<path d="M4595 8976 c-11 -7 -38 -24 -60 -36 -22 -12 -175 -100 -340 -195
-165 -95 -316 -182 -335 -192 -19 -11 -58 -34 -86 -50 -27 -17 -70 -42 -95
-55 -57 -33 -374 -216 -577 -333 -9 -5 -44 -25 -77 -44 -33 -19 -127 -73 -210
-121 -82 -48 -274 -158 -425 -244 -151 -87 -286 -165 -300 -174 -14 -9 -27
-17 -30 -17 -3 0 -39 -20 -80 -44 -242 -141 -345 -201 -727 -421 l-423 -243 0
-2218 0 -2217 113 -65 c62 -36 130 -74 150 -86 57 -32 94 -54 192 -111 50 -29
99 -58 110 -64 74 -42 243 -139 255 -147 15 -9 214 -124 280 -162 19 -10 123
-70 230 -132 107 -62 211 -122 230 -133 81 -45 300 -172 331 -191 19 -12 41
-24 49 -28 8 -4 43 -24 78 -45 34 -21 64 -38 67 -38 3 0 33 -17 67 -38 35 -21
83 -50 108 -64 42 -24 665 -382 740 -426 42 -25 116 -68 185 -107 28 -16 83
-48 123 -72 41 -24 75 -43 77 -43 1 0 44 -25 95 -55 51 -31 122 -72 159 -92
36 -20 86 -49 111 -64 39 -24 48 -26 65 -15 16 10 715 414 855 494 19 11 121
69 225 129 105 61 251 145 325 188 580 335 1195 690 1270 733 19 11 62 35 95
54 33 19 151 87 262 151 111 64 217 126 235 137 18 11 60 34 92 52 32 18 66
38 75 43 9 6 89 52 179 103 l162 93 0 2220 0 2219 -182 -111 c-101 -61 -196
-119 -213 -129 -16 -9 -169 -102 -340 -205 -170 -103 -325 -196 -342 -206 -18
-10 -72 -43 -120 -73 -49 -30 -117 -72 -153 -94 -36 -21 -227 -137 -425 -257
-198 -120 -369 -223 -380 -229 -11 -6 -74 -44 -140 -84 -66 -40 -129 -79 -140
-85 -10 -7 -37 -23 -60 -37 -22 -13 -45 -23 -52 -22 -7 2 -43 21 -80 44 -37
23 -149 90 -248 148 -364 216 -881 523 -903 538 l-22 14 2 -717 3 -717 220
-133 c314 -191 377 -229 395 -237 8 -5 44 -26 80 -49 54 -34 431 -263 528
-320 28 -17 47 -15 36 3 -4 7 -2 8 5 4 7 -5 72 27 159 77 81 47 230 133 332
192 102 59 203 117 225 130 22 12 85 49 140 81 55 31 138 79 185 106 47 27 94
55 105 61 10 7 36 22 57 35 l38 22 0 -714 c0 -559 -3 -716 -12 -724 -11 -8
-943 -560 -1025 -607 -15 -8 -41 -24 -58 -35 -16 -10 -41 -25 -55 -33 -30 -16
-712 -419 -890 -525 -69 -41 -141 -84 -160 -95 -19 -10 -73 -42 -120 -70 -47
-27 -99 -58 -116 -67 -17 -10 -40 -24 -51 -30 -16 -11 -48 5 -243 120 -124 73
-242 143 -263 157 -21 13 -54 33 -74 44 -63 35 -934 549 -1035 610 -53 33
-100 59 -104 59 -4 0 -15 6 -23 14 -15 13 -32 23 -141 84 -25 14 -56 33 -70
42 -14 9 -45 28 -70 42 -78 44 -474 279 -487 290 -9 7 -11 363 -11 1468 l0
1459 781 467 c430 258 950 569 1156 692 205 123 388 232 405 242 17 9 54 32
83 50 l52 32 198 -117 c109 -65 245 -146 303 -180 58 -35 218 -129 355 -210
138 -81 286 -169 329 -195 l79 -47 161 98 c89 55 177 108 196 119 19 11 52 30
72 42 135 83 583 354 681 412 64 39 117 73 117 76 0 3 -35 26 -77 51 -43 25
-213 126 -378 224 -165 98 -314 186 -331 195 -16 8 -44 26 -61 38 -17 12 -33
22 -36 22 -3 0 -52 28 -109 62 -121 72 -360 213 -403 238 -16 10 -127 75 -245
146 -118 70 -224 132 -235 138 -11 6 -31 19 -45 27 -27 17 -312 186 -345 205
-11 6 -59 34 -107 62 -48 29 -90 52 -95 52 -5 0 -17 -6 -28 -14z"/>
</g>
</svg>
