<svg viewBox="0 0 800 800" xmlns="http://www.w3.org/2000/svg">
	 <g fill="none" fill-rule="evenodd">
		<path d="M399.614 15.024l.05-.03 222.248 128.64-111.16 64.195L399.17 143.6 121.297 304.03 66.17 208.16 399.522 14.97l.092.054z" fill="#415b7d"/>
		<path d="M177.195 529.29l277.83 160.404-55.598 96.299-333.324-192.12H66L66.006 208l111.184 63.527.005 257.762z" fill="#446f9e"/>
		<path d="M621.714 530.146v-128.71l-111.296 64.46.006-128.903L621.714 273 732.994 209v.015l.016-.01-.006 127.976-.01.006v128.937l.03-.017-.007 127.976-334.04 193.111.05-128.332 222.687-128.516z" fill="#6790bc"/>
		<path fill="#446f9e" d="M400 273l111 64.024V466l-111-64.952z"/>
	</g>
</svg>
